<?xml version="1.0" standalone="no"?>
<!DOCTYPE svg PUBLIC "-//W3C//DTD SVG 20010904//EN"
 "http://www.w3.org/TR/2001/REC-SVG-20010904/DTD/svg10.dtd">
<svg version="1.0" xmlns="http://www.w3.org/2000/svg"
 width="512.000000pt" height="512.000000pt" viewBox="0 0 512.000000 512.000000"
 preserveAspectRatio="xMidYMid meet">

<g transform="translate(0.000000,512.000000) scale(0.100000,-0.100000)"
fill="#000000" stroke="none">
<path d="M1662 4967 l-152 -152 978 -978 977 -977 148 148 c81 81 147 152 147
157 0 5 -201 211 -447 457 l-448 448 373 373 372 372 -152 153 -153 152 -372
-372 -373 -373 -373 373 -372 372 -153 -153z"/>
<path d="M1498 3313 l-448 -448 -373 373 -372 372 -153 -152 -152 -153 372
-372 373 -373 -373 -373 -372 -372 153 -153 152 -152 978 978 977 977 -148
148 c-81 81 -152 147 -157 147 -6 0 -211 -201 -457 -447z"/>
<path d="M3837 2632 l-977 -977 148 -148 c81 -81 152 -147 157 -147 5 0 211
201 457 447 l448 448 373 -373 372 -372 153 152 152 153 -372 372 -373 373
373 373 372 372 -153 153 -152 152 -978 -978z"/>
<path d="M1507 2112 c-81 -81 -147 -152 -147 -157 0 -5 201 -211 447 -457
l448 -448 -373 -373 -372 -372 152 -153 153 -152 372 372 373 373 375 -375
375 -375 152 153 153 152 -980 980 -980 980 -148 -148z"/>
</g>
</svg>
